# xmcd
#
# Track frame offsets:
# 150
# 27546
# 46031
# 62789
# 79018
# 94081
# 107259
# 127234
# 148624
#
# Disc length: 2305 seconds
#
#
# Revision: 0
# Processed by: cddbd v1.5.1PL2 Copyright (c) Steve Scherf et al.
# Submitted via: FreeRIP 2.944 
#
DISCID=7408ff09
DTITLE=adrian - adrian
DYEAR=1993
DGENRE=dw
TTITLE0=adrian 1
TTITLE1=adrian 2
TTITLE2=adrian 3
TTITLE3=adrian 4
TTITLE4=adrian 5
TTITLE5=adrian 6
TTITLE6=adrian 7
TTITLE7=adrian 8
TTITLE8=adrian 9
EXTD=WRE3R32R2R2
EXTT0=
EXTT1=
EXTT2=
EXTT3=
EXTT4=
EXTT5=
EXTT6=
EXTT7=
EXTT8=
PLAYORDER=
